<svg width="45" height="46" viewBox="0 0 45 46" fill="none" xmlns="http://www.w3.org/2000/svg">
<path d="M40.5 19.2509C40.5 32.6145 23.25 44.0691 23.25 44.0691C23.25 44.0691 6 32.6145 6 19.2509C6 14.694 7.81741 10.3237 11.0524 7.10153C14.2874 3.87931 18.675 2.06909 23.25 2.06909C27.825 2.06909 32.2126 3.87931 35.4476 7.10153C38.6826 10.3237 40.5 14.694 40.5 19.2509Z" stroke="white" stroke-width="1.81818" stroke-linecap="round" stroke-linejoin="round"/>
<path d="M22.5 26.0691C25.8137 26.0691 28.5 23.3828 28.5 20.0691C28.5 16.7554 25.8137 14.0691 22.5 14.0691C19.1863 14.0691 16.5 16.7554 16.5 20.0691C16.5 23.3828 19.1863 26.0691 22.5 26.0691Z" stroke="white" stroke-width="1.81818" stroke-linecap="round" stroke-linejoin="round"/>
</svg>
