<svg width="19" height="19" viewBox="0 0 19 19" fill="none" xmlns="http://www.w3.org/2000/svg">
<path d="M8.66515 0C9.00116 0.0480956 9.33965 0.0832269 9.67282 0.146514C11.2917 0.454005 12.6775 1.20579 13.8308 2.3775C14.88 3.44342 15.5737 4.70986 15.8715 6.17855C16.2458 8.02473 15.9875 9.78532 15.0623 11.4287C14.766 11.9552 14.3912 12.4376 14.0523 12.9401C14.0204 12.9522 13.9884 12.9642 13.9564 12.9762C14.0166 13.0072 14.0889 13.0258 14.1351 13.0711C15.6676 14.5751 17.1989 16.0806 18.7257 17.5904C18.8348 17.6982 18.9094 17.8409 19 17.9674V18.223C18.9204 18.4599 18.7574 18.6134 18.5253 18.6978H18.2696C18.1225 18.5941 17.9578 18.5085 17.8308 18.3842C16.2998 16.8856 14.7743 15.3813 13.2472 13.8786C13.2087 13.8408 13.1682 13.8048 13.1213 13.7612C13.0685 13.7972 13.0177 13.8286 12.9706 13.8646C11.9555 14.6382 10.8175 15.1428 9.56271 15.3566C7.68746 15.6761 5.90288 15.3961 4.24503 14.4417C2.52019 13.4487 1.32368 12.0114 0.683468 10.1218C0.493606 9.56138 0.377987 8.98372 0.333835 8.39252C0.330366 8.34559 0.313129 8.29968 0.302246 8.25331V7.23077C0.313421 7.17818 0.327408 7.12604 0.335296 7.07297C0.380799 6.76669 0.408443 6.45668 0.472242 6.1543C0.777578 4.70727 1.4549 3.45485 2.48755 2.39883C3.64692 1.21327 5.04078 0.453859 6.67336 0.145273C6.99407 0.0846146 7.31938 0.0478034 7.64261 0H8.66515ZM1.50971 7.70234C1.5241 7.97342 1.52333 8.19973 1.54996 8.42279C1.71853 9.83509 2.25594 11.0874 3.23728 12.1236C4.95441 13.9367 7.0758 14.6182 9.5068 14.1453C11.638 13.7307 13.2308 12.5043 14.1748 10.532C15.1264 8.54411 15.0685 6.53479 14.003 4.61389C12.9108 2.64493 11.1878 1.5227 8.95328 1.24789C7.18886 1.03086 5.56617 1.46021 4.14416 2.53782C2.42415 3.84129 1.56862 5.59713 1.50971 7.70234Z" fill="black"/>
</svg>
